<?xml version="1.0" encoding="UTF-8" standalone="no"?>
<svg
   xmlns:dc="http://purl.org/dc/elements/1.1/"
   xmlns:cc="http://creativecommons.org/ns#"
   xmlns:rdf="http://www.w3.org/1999/02/22-rdf-syntax-ns#"
   xmlns:svg="http://www.w3.org/2000/svg"
   xmlns="http://www.w3.org/2000/svg"
   id="svg8"
   version="1.1"
   viewBox="0 0 135.46666 135.46667"
   height="512"
   width="512">
  <defs
     id="defs2" />
  <metadata
     id="metadata5">
    <rdf:RDF>
      <cc:Work
         rdf:about="">
        <dc:format>image/svg+xml</dc:format>
        <dc:type
           rdf:resource="http://purl.org/dc/dcmitype/StillImage" />
        <dc:title></dc:title>
        <cc:license
           rdf:resource="http://creativecommons.org/publicdomain/zero/1.0/" />
        <dc:creator>
          <cc:Agent>
            <dc:title>Francesco Martini</dc:title>
          </cc:Agent>
        </dc:creator>
      </cc:Work>
      <cc:License
         rdf:about="http://creativecommons.org/publicdomain/zero/1.0/">
        <cc:permits
           rdf:resource="http://creativecommons.org/ns#Reproduction" />
        <cc:permits
           rdf:resource="http://creativecommons.org/ns#Distribution" />
        <cc:permits
           rdf:resource="http://creativecommons.org/ns#DerivativeWorks" />
      </cc:License>
    </rdf:RDF>
  </metadata>
  <g
     transform="translate(0,-161.53332)"
     id="layer1">
    <g
       transform="matrix(0.75870834,0.19028787,-0.29783849,1.0037414,51.827518,1.2752164)"
       id="text4641"
       style="font-style:normal;font-weight:normal;font-size:10.58333302px;line-height:1.25;font-family:sans-serif;letter-spacing:0px;word-spacing:0px;fill:#328cff;fill-opacity:1;stroke:none;stroke-width:0.26458332;stroke-opacity:1"
       aria-label="&lt;/&gt;">
      <path
         id="path4643"
         style="font-style:normal;font-variant:normal;font-weight:bold;font-stretch:normal;font-size:91.72222137px;font-family:sans-serif;-inkscape-font-specification:'sans-serif Bold';fill:#328cff;fill-opacity:1;stroke:none;stroke-width:0.26458332;stroke-opacity:1"
         d="m 85.843441,218.14339 -43.173936,14.86903 43.173936,14.77946 v 11.19656 L 28.42748,238.25241 v -10.56956 l 57.415961,-20.73602 z" />
      <path
         id="path4645"
         style="font-style:normal;font-variant:normal;font-weight:bold;font-stretch:normal;font-size:91.72222137px;font-family:sans-serif;-inkscape-font-specification:'sans-serif Bold';fill:#328cff;fill-opacity:1;stroke:none;stroke-width:0.26458332;stroke-opacity:1"
         d="m 119.11962,194.85454 h 9.94254 l -23.60235,75.37524 h -9.897756 z" />
      <path
         id="path4647"
         style="font-style:normal;font-variant:normal;font-weight:bold;font-stretch:normal;font-size:91.72222137px;font-family:sans-serif;-inkscape-font-specification:'sans-serif Bold';fill:#328cff;fill-opacity:1;stroke:none;stroke-width:0.26458332;stroke-opacity:1"
         d="m 138.78077,218.14339 v -11.19656 l 57.41597,20.73602 v 10.56956 l -57.41597,20.73603 v -11.19656 l 43.21873,-14.77946 z" />
    </g>
    <g
       transform="translate(-5.0951977,6.857274)"
       id="g4599">
      <path
         style="fill:#f70000;fill-opacity:1;stroke:#f70000;stroke-width:4.25106042;stroke-linecap:round;stroke-linejoin:miter;stroke-miterlimit:6;stroke-dasharray:none;stroke-opacity:1"
         d="m 97.59541,197.04024 c -28.193892,2.61675 -30.028893,4.30939 -36.179803,30 -6.485851,-25.53833 -6.835749,-27.36876 -36.1798,-30 29.206921,-2.656 30.256195,-4.61657 36.1798,-30.00001 6.264093,25.19508 7.66075,27.13291 36.179803,30.00001 z"
         id="path3729" />
      <path
         style="fill:#f70000;stroke:#f60000;stroke-width:2.11666667;stroke-linecap:butt;stroke-linejoin:miter;stroke-miterlimit:4;stroke-dasharray:none;stroke-opacity:1;fill-opacity:1"
         d="m 103.81382,170.21919 c -7.714811,1.01669 -8.21693,1.67433 -9.900029,11.65594 -1.774751,-9.92244 -1.870495,-10.63362 -9.900032,-11.65594 7.992013,-1.03194 8.27913,-1.79368 9.900032,-11.65594 1.71407,9.78908 2.096243,10.54198 9.900029,11.65594 z"
         id="path3729-3" />
      <path
         style="fill:#f70000;stroke:#f50000;stroke-width:2.11666667;stroke-linecap:butt;stroke-linejoin:miter;stroke-miterlimit:4;stroke-dasharray:none;stroke-opacity:1;fill-opacity:1"
         d="m 126.01993,186.68746 c -7.71482,1.01669 -8.21694,1.67433 -9.90004,11.65594 -1.77475,-9.92244 -1.87049,-10.63362 -9.90003,-11.65594 7.99201,-1.03194 8.27913,-1.79368 9.90003,-11.65594 1.71407,9.78908 2.09625,10.54198 9.90004,11.65594 z"
         id="path3729-3-6" />
      <path
         style="fill:#f70000;fill-opacity:1;stroke:#f50000;stroke-width:2.11666656;stroke-linecap:butt;stroke-linejoin:miter;stroke-miterlimit:4;stroke-dasharray:none;stroke-opacity:1"
         d="m 118.90554,218.80201 c -7.71482,1.01669 -8.21694,1.67433 -9.90004,11.65594 -1.77475,-9.92244 -1.87049,-10.63362 -9.900034,-11.65594 7.992014,-1.03194 8.279134,-1.79368 9.900034,-11.65594 1.71407,9.78908 2.09625,10.54198 9.90004,11.65594 z"
         id="path3729-3-6-7" />
    </g>
  </g>
</svg>
